HIERARCHY
ROOT reference
{
  OFFSET 0 0 0
  CHANNELS 6 Xposition Yposition Zposition Zrotation Xrotation Yrotation
  JOINT Hips
  {
    OFFSET -17.4895 77.7251 -228.032
    CHANNELS 6 Xposition Yposition Zposition Zrotation Xrotation Yrotation
    JOINT Spine
    {
      OFFSET 0 8.22665 0
      CHANNELS 6 Xposition Yposition Zposition Zrotation Xrotation Yrotation
      JOINT Spine1
      {
        OFFSET 0 24.451 0
        CHANNELS 6 Xposition Yposition Zposition Zrotation Xrotation Yrotation
        JOINT Neck
        {
          OFFSET 0 24.3506 2.21369
          CHANNELS 6 Xposition Yposition Zposition Zrotation Xrotation Yrotation
          JOINT Head
          {
            OFFSET 0 14.0455 -2.0065
            CHANNELS 6 Xposition Yposition Zposition Zrotation Xrotation Yrotation
            End Site
            {
              OFFSET 0 25.0812 0
            }
          }
        }
        JOINT LeftShoulder
        {
          OFFSET 4.0594 22.2558 -0.272799
          CHANNELS 6 Xposition Yposition Zposition Zrotation Xrotation Yrotation
          JOINT LeftArm
          {
            OFFSET 12.0298 0 0
            CHANNELS 6 Xposition Yposition Zposition Zrotation Xrotation Yrotation
            JOINT LeftForeArm
            {
              OFFSET 31.2689 0 0
              CHANNELS 6 Xposition Yposition Zposition Zrotation Xrotation Yrotation
              JOINT LeftHand
              {
                OFFSET 28.0275 0 0
                CHANNELS 6 Xposition Yposition Zposition Zrotation Xrotation Yrotation
                End Site
                {
                  OFFSET 15.0487 0 0
                }
              }
            }
          }
        }
        JOINT RightShoulder
        {
          OFFSET -3.96464 22.2558 -0.272799
          CHANNELS 6 Xposition Yposition Zposition Zrotation Xrotation Yrotation
          JOINT RightArm
          {
            OFFSET -12.0298 0 0
            CHANNELS 6 Xposition Yposition Zposition Zrotation Xrotation Yrotation
            JOINT RightForeArm
            {
              OFFSET -31.2689 0 0
              CHANNELS 6 Xposition Yposition Zposition Zrotation Xrotation Yrotation
              JOINT RightHand
              {
                OFFSET -28.0275 0 0
                CHANNELS 6 Xposition Yposition Zposition Zrotation Xrotation Yrotation
                End Site
                {
                  OFFSET -15.0487 0 0
                }
              }
            }
          }
        }
      }
    }
    JOINT LeftUpLeg
    {
      OFFSET 10.0325 0 0
      CHANNELS 6 Xposition Yposition Zposition Zrotation Xrotation Yrotation
      JOINT LeftLeg
      {
        OFFSET 0 -38.4033 0
        CHANNELS 6 Xposition Yposition Zposition Zrotation Xrotation Yrotation
        JOINT LeftFoot
        {
          OFFSET 0 -44.1642 0
          CHANNELS 6 Xposition Yposition Zposition Zrotation Xrotation Yrotation
          JOINT LeftToeBase
          {
            OFFSET 0 -6.52112 15.0487
            CHANNELS 6 Xposition Yposition Zposition Zrotation Xrotation Yrotation
            End Site
            {
              OFFSET 0 0 4.013
            }
          }
        }
      }
    }
    JOINT RightUpLeg
    {
      OFFSET -10.0325 0 0
      CHANNELS 6 Xposition Yposition Zposition Zrotation Xrotation Yrotation
      JOINT RightLeg
      {
        OFFSET 0 -38.4033 0
        CHANNELS 6 Xposition Yposition Zposition Zrotation Xrotation Yrotation
        JOINT RightFoot
        {
          OFFSET 0 -44.1642 0
          CHANNELS 6 Xposition Yposition Zposition Zrotation Xrotation Yrotation
          JOINT RightToeBase
          {
            OFFSET 0 -6.52112 15.0487
            CHANNELS 6 Xposition Yposition Zposition Zrotation Xrotation Yrotation
            End Site
            {
              OFFSET 0 0 4.013
            }
          }
        }
      }
    }
  }
}
MOTION
Frames:	6
Frame Time:	0.004
0 0 0 0 0 -0 -161.606 86.4491 48.5092 -1.2063 -11.5349 38.8168 0 8.22665 7.10543e-015 0.840418 4.14677 -2.54503 0 24.451 2.13163e-014 -3.05315 5.38156 -2.37105 -2.84217e-014 24.3506 2.21369 4.12163 20.5992 25.0468 1.42109e-014 14.0455 -2.0065 -26.0438 14.1294 26.0969 4.0594 22.2558 -0.272799 -2.80898 8.91707 0.749347 12.0298 0 0 -67.1264 37.3466 -10.6052 31.2689 2.84217e-014 0 21.5275 -25.5103 -76.1476 28.0275 1.42109e-014 0 19.3827 -8.28245 5.23881 -3.96464 22.2558 -0.272799 -6.1681 14.3604 -3.45103 -12.0298 -1.42109e-014 0 59.2485 50.1708 -0.818748 -31.2689 0 5.68434e-014 9.33874 -12.1329 107.142 -28.0275 -2.84217e-014 -3.37508e-014 4.82988 -23.8964 8.0012 10.0325 0 1.42109e-014 -14.3779 6.02095 -5.73212 2.84217e-014 -38.4033 7.10543e-015 0.430542 25.7876 -13.8034 -2.84217e-014 -44.1642 -7.10543e-015 19.9187 -17.321 23.054 0 -6.52112 15.0487 -7.95139e-016 -1.59028e-015 3.18055e-015 -10.0325 -1.42109e-014 -7.10543e-015 -7.12883 -15.6086 -2.67142 -2.84217e-014 -38.4033 -1.42109e-014 -20.2821 75.4505 21.865 2.84217e-014 -44.1642 1.42109e-014 9.17073 -5.46592 -12.5115 -2.84217e-014 -6.52112 15.0487 0 3.18055e-015 -0 
0 0 0 0 0 -0 -161.259 86.6319 48.9159 -1.34884 -11.5014 39.5696 -2.84217e-014 8.22665 0 0.966314 4.16455 -2.96669 0 24.451 0 -2.97837 5.18808 -2.79657 -2.84217e-014 24.3506 2.21369 4.03273 20.8395 25.167 -1.42109e-014 14.0455 -2.0065 -26.2986 14.1586 26.2369 4.0594 22.2558 -0.272799 -2.67081 8.92755 0.591168 12.0298 0 0 -67.0354 37.3826 -11.01 31.2689 0 0 22.1822 -26.1107 -76.512 28.0275 1.42109e-014 -2.84217e-014 19.591 -8.1895 5.74898 -3.96464 22.2558 -0.272799 -6.31824 14.387 -3.57607 -12.0298 1.42109e-014 7.10543e-015 59.1104 50.4091 -0.988001 -31.2689 0 -2.84217e-014 9.63769 -11.6058 107.848 -28.0275 0 7.10543e-015 4.73626 -23.9676 7.41811 10.0325 0 7.10543e-015 -14.1925 6.78553 -6.5645 -2.84217e-014 -38.4033 -1.42109e-014 0.525496 25.0052 -13.7109 0 -44.1642 7.10543e-015 19.3893 -16.9615 22.8464 0 -6.52112 15.0487 -1.19271e-015 0 -3.18055e-015 -10.0325 0 -7.10543e-015 -6.91196 -16.2115 -2.97832 0 -38.4033 1.42109e-014 -19.0122 74.9791 19.9666 -2.84217e-014 -44.1642 7.10543e-015 9.80192 -5.56669 -12.469 0 -6.52112 15.0487 3.18055e-015 -6.36111e-015 -3.18055e-015 
0 0 0 0 0 -0 -160.938 86.8258 49.3207 -1.56912 -11.4539 40.2666 0 8.22665 -7.10543e-015 1.10686 4.15566 -3.40488 -2.84217e-014 24.451 7.10543e-015 -2.8908 4.98547 -3.23886 0 24.3506 2.21369 3.94696 21.1211 25.3043 2.84217e-014 14.0455 -2.0065 -26.6192 14.059 26.3649 4.0594 22.2558 -0.272799 -2.49074 8.88334 0.553001 12.0298 1.42109e-014 1.42109e-014 -67.065 37.5055 -11.3652 31.2689 -2.84217e-014 1.42109e-014 22.9597 -26.8101 -76.8345 28.0275 0 0 19.6888 -8.1141 6.26399 -3.96464 22.2558 -0.272799 -6.5793 14.2824 -3.60584 -12.0298 2.84217e-014 -7.10543e-015 59.3383 50.734 -1.48358 -31.2689 0 0 9.61121 -11.3947 108.446 -28.0275 -2.84217e-014 3.55271e-015 5.51033 -23.8 8.0085 10.0325 -1.42109e-014 0 -13.9196 7.46592 -7.10554 0 -38.4033 -7.10543e-015 0.715064 24.1933 -13.4972 -2.84217e-014 -44.1642 7.10543e-015 18.6082 -16.7438 22.2521 5.68434e-014 -6.52112 15.0487 2.38542e-015 1.59028e-015 -0 -10.0325 0 7.10543e-015 -6.72846 -16.7856 -3.18602 0 -38.4033 -7.10543e-015 -17.0476 74.2929 17.2641 -2.84217e-014 -44.1642 1.42109e-014 9.82734 -5.31953 -11.7384 0 -6.52112 15.0487 3.18055e-015 -3.18055e-015 -3.18055e-015 
0 0 0 0 0 -0 -160.6 87.021 49.7237 -1.74833 -11.4226 41.0235 0 8.22665 7.10543e-015 1.2462 4.1671 -3.85709 0 24.451 7.10543e-015 -2.80703 4.77632 -3.69465 0 24.3506 2.21369 3.85042 21.3527 25.4279 0 14.0455 -2.0065 -26.8632 14.0653 26.5016 4.0594 22.2558 -0.272799 -2.33137 8.83316 0.49039 12.0298 0 1.42109e-014 -67.1233 37.8456 -11.6393 31.2689 0 -7.10543e-015 24.0067 -27.676 -76.9524 28.0275 0 0 19.8241 -8.05136 6.81846 -3.96464 22.2558 -0.272799 -6.7491 14.2626 -3.68878 -12.0298 -1.42109e-014 1.42109e-014 59.3996 51.0485 -1.88239 -31.2689 0 0 9.82534 -11.0737 109.217 -28.0275 0 -8.88178e-015 4.90678 -24.0381 7.00457 10.0325 0 -7.10543e-015 -13.6337 8.15451 -7.51713 2.84217e-014 -38.4033 0 0.930538 23.4689 -13.8831 -2.84217e-014 -44.1642 7.10543e-015 17.9954 -16.3547 22.0953 0 -6.52112 15.0487 1.59028e-015 -7.95139e-016 3.18055e-015 -10.0325 0 -7.10543e-015 -6.51544 -17.3354 -3.36612 -2.84217e-014 -38.4033 7.10543e-015 -15.4147 73.7114 15.4359 -2.84217e-014 -44.1642 -7.10543e-015 10.5585 -5.44231 -12.0836 0 -6.52112 15.0487 3.18055e-015 6.36111e-015 -0 
0 0 0 0 0 -0 -160.263 87.2446 50.1231 -1.87947 -11.369 41.8266 0 8.22665 1.42109e-014 1.32607 4.23412 -4.32021 0 24.451 7.10543e-015 -2.77643 4.5227 -4.16152 -2.84217e-014 24.3506 2.21369 3.85534 21.4227 25.4995 1.42109e-014 14.0455 -2.0065 -26.9824 14.3308 26.6465 4.0594 22.2558 -0.272799 -2.06121 8.75457 0.462801 12.0298 -4.26326e-014 2.84217e-014 -67.2256 37.9651 -11.9605 31.2689 -2.84217e-014 0 24.7159 -28.3217 -77.2742 28.0275 0 -2.84217e-014 19.9136 -7.95671 7.35517 -3.96464 22.2558 -0.272799 -6.79872 14.2845 -3.74733 -12.0298 0 1.42109e-014 59.3889 51.3455 -2.28434 -31.2689 0 0 9.80642 -10.9665 109.907 -28.0275 0 1.24345e-014 5.5988 -24.0364 7.08061 10.0325 1.42109e-014 7.10543e-015 -13.3572 8.93002 -8.45221 0 -38.4033 0 0.948002 22.6484 -14.3264 0 -44.1642 7.10543e-015 17.59 -15.6941 22.4749 -2.84217e-014 -6.52112 15.0487 1.59028e-015 3.97569e-016 -6.36111e-015 -10.0325 1.42109e-014 1.42109e-014 -6.43903 -17.8041 -3.58659 -2.84217e-014 -38.4033 1.42109e-014 -13.5153 73.0363 13.6035 2.84217e-014 -44.1642 -7.10543e-015 10.831 -5.70921 -12.5834 2.84217e-014 -6.52112 15.0487 1.59028e-015 -6.36111e-015 -0 
0 0 0 0 0 -0 -159.936 87.4657 50.536 -2.09721 -11.3527 42.5349 2.84217e-014 8.22665 1.42109e-014 1.44939 4.25871 -4.74359 0 24.451 -2.13163e-014 -2.63142 4.28126 -4.59131 0 24.3506 2.21369 3.82801 21.6923 25.5742 0 14.0455 -2.0065 -27.3636 14.342 26.7372 4.0594 22.2558 -0.272799 -1.92163 8.76987 0.381151 12.0298 1.42109e-014 0 -67.2032 37.9772 -12.3126 31.2689 2.84217e-014 -7.10543e-015 25.3676 -28.9648 -77.6497 28.0275 1.42109e-014 0 20.0066 -7.89732 7.7989 -3.96464 22.2558 -0.272799 -6.99224 14.2728 -3.8299 -12.0298 -1.42109e-014 -7.10543e-015 59.4422 51.6579 -2.66055 -31.2689 0 0 9.88632 -10.7851 110.601 -28.0275 -2.84217e-014 -1.24345e-014 5.92678 -24.1394 6.79343 10.0325 -1.42109e-014 -7.10543e-015 -12.9473 9.60876 -8.80939 0 -38.4033 1.42109e-014 1.0745 21.8336 -14.329 0 -44.1642 0 17.3091 -15.1684 21.8971 -2.84217e-014 -6.52112 15.0487 3.97569e-016 -7.95139e-016 6.36111e-015 -10.0325 -1.42109e-014 0 -6.21338 -18.2595 -3.76356 0 -38.4033 1.42109e-014 -11.8449 72.2136 11.9391 2.84217e-014 -44.1642 0 10.9607 -6.03344 -12.9122 -2.84217e-014 -6.52112 15.0487 1.59028e-015 3.18055e-015 6.36111e-015 
